<?xml version="1.0" encoding="UTF-8" standalone="no"?>
<!-- Created with Inkscape (http://www.inkscape.org/) -->
<svg xmlns:dc="http://purl.org/dc/elements/1.1/" xmlns:cc="http://creativecommons.org/ns#" xmlns:rdf="http://www.w3.org/1999/02/22-rdf-syntax-ns#" xmlns:svg="http://www.w3.org/2000/svg" xmlns="http://www.w3.org/2000/svg" xmlns:sodipodi="http://sodipodi.sourceforge.net/DTD/sodipodi-0.dtd" xmlns:inkscape="http://www.inkscape.org/namespaces/inkscape" id="svg2" sodipodi:version="0.32" inkscape:version="0.48.2 r9819" width="485" height="441" version="1.0" sodipodi:docname="Complexity_subsets_pspace.svg" inkscape:output_extension="org.inkscape.output.svg.inkscape">
  <metadata id="metadata7">
    <rdf:RDF>
      <cc:Work rdf:about="">
        <dc:format>image/svg+xml</dc:format>
        <dc:type rdf:resource="http://purl.org/dc/dcmitype/StillImage"/>
        <dc:title/>
      </cc:Work>
    </rdf:RDF>
  </metadata>
  <defs id="defs5">
    <mask maskUnits="userSpaceOnUse" id="mask3940">
      <path style="fill:#ffffff;fill-opacity:1;stroke:none" d="m 94.4635,14.010955 0,540.999995 328,0 0,-6 54.96875,0 0,-107 416.03125,0 0,-106 -416.03125,0 0,-26 410.1875,0 0,-97 -26.15625,0 0,-187.999995 -439,0 0,-11 -328,0 z" id="path3942" inkscape:connector-curvature="0"/>
    </mask>
    <clipPath clipPathUnits="userSpaceOnUse" id="clipPath3973">
      <path style="fill:#ffffff;fill-opacity:1;stroke:none" d="m 86.3978,65.74088 0,344 -7,0 0,199 7,0 0,69 316,0 0,-69 261,0 0,-166 237,0 0,-106 -416.03125,0 0,-26 410.1875,0 0,-97 -210.15625,0 0,-106 -282,0 0,-42 -316,0 z" id="path3975" inkscape:connector-curvature="0"/>
    </clipPath>
    <mask maskUnits="userSpaceOnUse" id="mask3989">
      <path inkscape:connector-curvature="0" id="path3991" d="m 388.14621,271.0933 0,12.40625 -47.0625,0 0,74.4375 74.8125,0 0,5.5 43.4375,0 0,-36.24318 -26.65625,0 0,-14.3926 21.90625,0 0,-41.70797 z" style="fill:#ffffff;fill-opacity:1;stroke:#000000;stroke-width:0;stroke-miterlimit:4;stroke-opacity:1;stroke-dasharray:none;stroke-dashoffset:0" sodipodi:nodetypes="ccccccccccccc"/>
    </mask>
    <mask maskUnits="userSpaceOnUse" id="mask3996">
      <path inkscape:connector-curvature="0" id="path3998" d="m 268.05992,212.17154 0,7 -9.7205,0 0,97 9.7205,0 0,26 -9.7205,0 0,106 9.7205,0 0,107 200.24223,0 0,-107 416.03727,0 0,-106 -416.03727,0 0,-30 410.20497,0 0,-93 -410.20497,0 0,-7 z" style="fill:#ffffff;fill-opacity:1;stroke:none" sodipodi:nodetypes="ccccccccccccccccccccc"/>
    </mask>
    <mask maskUnits="userSpaceOnUse" id="mask4064">
      <path inkscape:connector-curvature="0" id="path4066" d="m 388.14621,271.0933 0,12.40625 -47.0625,0 0,74.4375 74.8125,0 0,5.5 43.4375,0 0,-31.25 -26.65625,0 0,-28.40625 21.90625,0 0,-32.6875 z" style="fill:#ffffff;fill-opacity:1;stroke:#000000;stroke-width:0;stroke-miterlimit:4;stroke-opacity:1;stroke-dasharray:none;stroke-dashoffset:0" sodipodi:nodetypes="ccccccccccccc"/>
    </mask>
  </defs>
  <sodipodi:namedview inkscape:window-height="1035" inkscape:window-width="1865" inkscape:pageshadow="2" inkscape:pageopacity="0.0" guidetolerance="10.0" gridtolerance="10.0" objecttolerance="10.0" borderopacity="1.0" bordercolor="#666666" pagecolor="#ffffff" id="base" showgrid="false" inkscape:zoom="1.4142136" inkscape:cx="288.04615" inkscape:cy="162.43146" inkscape:window-x="1366" inkscape:window-y="0" inkscape:current-layer="svg2" showguides="true" inkscape:guide-bbox="true" inkscape:window-maximized="1"/>
  <path sodipodi:type="arc" style="fill:#dcdcdc;fill-opacity:1;fill-rule:nonzero;stroke:#000000;stroke-width:1.5;stroke-linecap:butt;stroke-linejoin:miter;stroke-miterlimit:4;stroke-opacity:1;stroke-dasharray:none;stroke-dashoffset:0" id="path3164" sodipodi:cx="417.88321" sodipodi:cy="294.75183" sodipodi:rx="236.86131" sodipodi:ry="214.9635" d="m 654.74452,294.75183 a 236.86131,214.9635 0 1 1 -473.72262,0 236.86131,214.9635 0 1 1 473.72262,0 z" transform="translate(-175.38321,-74.251831)"/>
  <path transform="matrix(1,0,0,1.0543999,-179.3978,-75.444229)" d="m 620.43794,303.51096 a 198.54015,168.97809 0 1 1 -397.08029,0 198.54015,168.97809 0 1 1 397.08029,0 z" sodipodi:ry="168.97809" sodipodi:rx="198.54015" sodipodi:cy="303.51096" sodipodi:cx="421.8978" id="path3960" style="fill:#c3c3c3;fill-opacity:1;fill-rule:nonzero;stroke:none" sodipodi:type="arc"/>
  <path transform="matrix(1,0,0,1.0233118,-172.4635,-47.447)" d="m 564.9635,311.17517 a 150,136.49635 0 1 1 -300,0 150,136.49635 0 1 1 300,0 z" sodipodi:ry="136.49635" sodipodi:rx="150" sodipodi:cy="311.17517" sodipodi:cx="414.9635" id="path3929" style="fill:#aaaaaa;fill-opacity:1;fill-rule:nonzero;stroke:none" sodipodi:type="arc"/>
  <path transform="matrix(1,0,0,1.0280793,-163.33942,-37.085981)" d="m 527.73721,323.58395 a 121.8978,100.72993 0 1 1 -243.79559,0 121.8978,100.72993 0 1 1 243.79559,0 z" sodipodi:ry="100.72993" sodipodi:rx="121.8978" sodipodi:cy="323.58395" sodipodi:cx="405.83942" id="path3896" style="fill:#919191;fill-opacity:1;fill-rule:nonzero;stroke:none" sodipodi:type="arc"/>
  <text xml:space="preserve" style="font-size:26px;font-style:normal;font-variant:normal;font-weight:bold;font-stretch:normal;text-align:center;line-height:125%;writing-mode:lr-tb;text-anchor:middle;fill:#000000;fill-opacity:1;stroke:none;font-family:Bitstream Vera Sans;-inkscape-font-specification:Bitstream Vera Sans Bold" x="242.26514" y="123.93064" id="text3174" sodipodi:linespacing="125%"><tspan sodipodi:role="line" id="tspan3176" x="242.26514" y="123.93064"/></text>
  <path transform="matrix(1.8247654,0,0,2.0878289,-488.07213,-348.44306)" d="m 450.36496,320.66425 a 50,31.386862 0 1 1 -100,0 50,31.386862 0 1 1 100,0 z" sodipodi:ry="31.386862" sodipodi:rx="50" sodipodi:cy="320.66425" sodipodi:cx="400.36496" id="path3886" style="fill:#787878;fill-opacity:1;fill-rule:nonzero;stroke:#000000;stroke-width:0;stroke-linecap:butt;stroke-linejoin:miter;stroke-miterlimit:4;stroke-opacity:1;stroke-dasharray:none;stroke-dashoffset:0" sodipodi:type="arc"/>
  <path sodipodi:type="arc" style="fill:#5f5f5f;fill-opacity:1;fill-rule:nonzero;stroke:#000000;stroke-width:0;stroke-linecap:butt;stroke-linejoin:miter;stroke-miterlimit:4;stroke-opacity:1;stroke-dasharray:none;stroke-dashoffset:0" id="path3154" sodipodi:cx="400.36496" sodipodi:cy="320.66425" sodipodi:rx="50" sodipodi:ry="31.386862" d="m 450.36496,320.66425 a 50,31.386862 0 1 1 -100,0 50,31.386862 0 1 1 100,0 z" transform="translate(-157.86496,27.3822)"/>
  <text xml:space="preserve" style="font-size:26px;font-style:normal;font-variant:normal;font-weight:normal;font-stretch:normal;text-align:center;line-height:125%;writing-mode:lr-tb;text-anchor:middle;fill:#000000;fill-opacity:1;stroke:none;font-family:Bitstream Vera Sans;-inkscape-font-specification:Bitstream Vera Sans" x="242.06836" y="47.575603" id="text3166" sodipodi:linespacing="125%"><tspan sodipodi:role="line" id="tspan3168" x="242.06836" y="47.575603">EXPSPACE</tspan></text>
  <text xml:space="preserve" style="font-size:26px;font-style:normal;font-variant:normal;font-weight:normal;font-stretch:normal;text-align:center;line-height:125%;writing-mode:lr-tb;text-anchor:middle;fill:#000000;fill-opacity:1;stroke:none;font-family:Bitstream Vera Sans;-inkscape-font-specification:Bitstream Vera Sans" x="242.06836" y="110.66319" id="text3170" sodipodi:linespacing="125%"><tspan sodipodi:role="line" id="tspan3172" x="242.06836" y="110.66319">EXPTIME</tspan></text>
  <text xml:space="preserve" style="font-size:26px;font-style:normal;font-variant:normal;font-weight:normal;font-stretch:normal;text-align:center;line-height:125%;writing-mode:lr-tb;text-anchor:middle;fill:#000000;fill-opacity:1;stroke:none;font-family:Bitstream Vera Sans;-inkscape-font-specification:Bitstream Vera Sans" x="241.6748" y="236.81296" id="text3178" sodipodi:linespacing="125%"><tspan sodipodi:role="line" id="tspan3180" x="241.6748" y="236.81296">NP</tspan></text>
  <text xml:space="preserve" style="font-size:26px;font-style:normal;font-variant:normal;font-weight:normal;font-stretch:normal;text-align:center;line-height:125%;writing-mode:lr-tb;text-anchor:middle;fill:#000000;fill-opacity:1;stroke:none;font-family:Bitstream Vera Sans;-inkscape-font-specification:Bitstream Vera Sans" x="241.6748" y="299.53235" id="text3182" sodipodi:linespacing="125%"><tspan sodipodi:role="line" id="tspan3184" x="241.6748" y="299.53235">P</tspan></text>
  <text sodipodi:linespacing="125%" id="text3835" y="173.72539" x="242.06836" style="font-size:26px;font-style:normal;font-variant:normal;font-weight:normal;font-stretch:normal;text-align:center;line-height:125%;writing-mode:lr-tb;text-anchor:middle;fill:#000000;fill-opacity:1;stroke:none;font-family:Bitstream Vera Sans;-inkscape-font-specification:Bitstream Vera Sans" xml:space="preserve"><tspan y="173.72539" x="242.06836" id="tspan3837" sodipodi:role="line">PSPACE</tspan></text>
  <g id="g4018" transform="matrix(0.76205646,0,0,0.76205646,-172.57979,-92.061828)" style="fill:#000000">
    <text xml:space="preserve" style="font-size:26px;font-style:normal;font-variant:normal;font-weight:normal;font-stretch:normal;text-align:center;line-height:125%;writing-mode:lr-tb;text-anchor:middle;fill:#000000;fill-opacity:1;stroke:none;font-family:Bitstream Vera Sans;-inkscape-font-specification:Bitstream Vera Sans" x="544.68378" y="231.61261" id="text4004" sodipodi:linespacing="125%"><tspan id="tspan4008" sodipodi:role="line" x="544.68378" y="231.61261">=</tspan></text>
    <text sodipodi:linespacing="125%" id="text4010" y="217.02507" x="545.09546" style="font-size:26px;font-style:normal;font-variant:normal;font-weight:normal;font-stretch:normal;text-align:center;line-height:125%;writing-mode:lr-tb;text-anchor:middle;fill:#000000;fill-opacity:1;stroke:none;font-family:Bitstream Vera Sans;-inkscape-font-specification:Bitstream Vera Sans" xml:space="preserve"><tspan y="217.02507" x="545.09546" id="tspan4012" sodipodi:role="line">?</tspan><tspan y="249.52507" x="545.09546" sodipodi:role="line" id="tspan4014"/></text>
  </g>
  <g transform="matrix(0.76205646,0,0,0.76205646,-172.57979,-29.342407)" id="g4025" style="fill:#000000">
    <text sodipodi:linespacing="125%" id="text4027" y="231.61261" x="544.68378" style="font-size:26px;font-style:normal;font-variant:normal;font-weight:normal;font-stretch:normal;text-align:center;line-height:125%;writing-mode:lr-tb;text-anchor:middle;fill:#000000;fill-opacity:1;stroke:none;font-family:Bitstream Vera Sans;-inkscape-font-specification:Bitstream Vera Sans" xml:space="preserve"><tspan y="231.61261" x="544.68378" sodipodi:role="line" id="tspan4029">=</tspan></text>
    <text xml:space="preserve" style="font-size:26px;font-style:normal;font-variant:normal;font-weight:normal;font-stretch:normal;text-align:center;line-height:125%;writing-mode:lr-tb;text-anchor:middle;fill:#000000;fill-opacity:1;stroke:none;font-family:Bitstream Vera Sans;-inkscape-font-specification:Bitstream Vera Sans" x="545.09546" y="217.02507" id="text4031" sodipodi:linespacing="125%"><tspan sodipodi:role="line" id="tspan4033" x="545.09546" y="217.02507">?</tspan><tspan id="tspan4035" sodipodi:role="line" x="545.09546" y="249.52507"/></text>
  </g>
  <g id="g4037" transform="matrix(0.76205646,0,0,0.76205646,-172.57979,34.087952)" style="fill:#000000">
    <text xml:space="preserve" style="font-size:26px;font-style:normal;font-variant:normal;font-weight:normal;font-stretch:normal;text-align:center;line-height:125%;writing-mode:lr-tb;text-anchor:middle;fill:#000000;fill-opacity:1;stroke:none;font-family:Bitstream Vera Sans;-inkscape-font-specification:Bitstream Vera Sans" x="544.68378" y="231.61261" id="text4039" sodipodi:linespacing="125%"><tspan id="tspan4041" sodipodi:role="line" x="544.68378" y="231.61261">=</tspan></text>
    <text sodipodi:linespacing="125%" id="text4043" y="217.02507" x="545.09546" style="font-size:26px;font-style:normal;font-variant:normal;font-weight:normal;font-stretch:normal;text-align:center;line-height:125%;writing-mode:lr-tb;text-anchor:middle;fill:#000000;fill-opacity:1;stroke:none;font-family:Bitstream Vera Sans;-inkscape-font-specification:Bitstream Vera Sans" xml:space="preserve"><tspan y="217.02507" x="545.09546" id="tspan4045" sodipodi:role="line">?</tspan><tspan y="249.52507" x="545.09546" sodipodi:role="line" id="tspan4047"/></text>
  </g>
  <g transform="matrix(0.76205646,0,0,0.76205646,-172.57979,96.807358)" id="g4049" style="fill:#000000">
    <text sodipodi:linespacing="125%" id="text4051" y="231.61261" x="544.68378" style="font-size:26px;font-style:normal;font-variant:normal;font-weight:normal;font-stretch:normal;text-align:center;line-height:125%;writing-mode:lr-tb;text-anchor:middle;fill:#000000;fill-opacity:1;stroke:none;font-family:Bitstream Vera Sans;-inkscape-font-specification:Bitstream Vera Sans" xml:space="preserve"><tspan y="231.61261" x="544.68378" sodipodi:role="line" id="tspan4053">=</tspan></text>
    <text xml:space="preserve" style="font-size:26px;font-style:normal;font-variant:normal;font-weight:normal;font-stretch:normal;text-align:center;line-height:125%;writing-mode:lr-tb;text-anchor:middle;fill:#000000;fill-opacity:1;stroke:none;font-family:Bitstream Vera Sans;-inkscape-font-specification:Bitstream Vera Sans" x="545.09546" y="217.02507" id="text4055" sodipodi:linespacing="125%"><tspan sodipodi:role="line" id="tspan4057" x="545.09546" y="217.02507">?</tspan><tspan id="tspan4059" sodipodi:role="line" x="545.09546" y="249.52507"/></text>
  </g>
  <text xml:space="preserve" style="font-size:26px;font-style:normal;font-variant:normal;font-weight:normal;font-stretch:normal;text-align:center;line-height:125%;writing-mode:lr-tb;text-anchor:middle;fill:#000000;fill-opacity:1;stroke:none;font-family:Bitstream Vera Sans;-inkscape-font-specification:Bitstream Vera Sans" x="241.2876" y="362.25177" id="text3186" sodipodi:linespacing="125%"><tspan sodipodi:role="line" id="tspan3188" x="241.2876" y="362.25177">NL</tspan></text>
  <g id="g4068" transform="matrix(0.76205646,0,0,0.76205646,-172.57979,159.52676)" style="fill:#000000">
    <text xml:space="preserve" style="font-size:26px;font-style:normal;font-variant:normal;font-weight:normal;font-stretch:normal;text-align:center;line-height:125%;writing-mode:lr-tb;text-anchor:middle;fill:#000000;fill-opacity:1;stroke:none;font-family:Bitstream Vera Sans;-inkscape-font-specification:Bitstream Vera Sans" x="544.68378" y="231.61261" id="text4070" sodipodi:linespacing="125%"><tspan id="tspan4072" sodipodi:role="line" x="544.68378" y="231.61261">=</tspan></text>
    <text sodipodi:linespacing="125%" id="text4074" y="217.02507" x="545.09546" style="font-size:26px;font-style:normal;font-variant:normal;font-weight:normal;font-stretch:normal;text-align:center;line-height:125%;writing-mode:lr-tb;text-anchor:middle;fill:#000000;fill-opacity:1;stroke:none;font-family:Bitstream Vera Sans;-inkscape-font-specification:Bitstream Vera Sans" xml:space="preserve"><tspan y="217.02507" x="545.09546" id="tspan4076" sodipodi:role="line">?</tspan><tspan y="249.52507" x="545.09546" sodipodi:role="line" id="tspan4078"/></text>
  </g>
</svg>